HIERARCHY
ROOT HipCenter
{
    OFFSET 0.0 0.0 -0.0
    CHANNELS 6 Xposition Yposition Zposition Zrotation Xrotation Yrotation
    JOINT Spine
    {
        OFFSET 0.0 30.569456100463867 0.0
        CHANNELS 3 Zrotation Xrotation Yrotation
        JOINT ShoulderCenter
        {
            OFFSET 0.0 22.458179473876953 0.0
            CHANNELS 3 Zrotation Xrotation Yrotation
            JOINT LeftShoulder
            {
                OFFSET 16.312541961669922 0.0 0.0
                CHANNELS 3 Zrotation Xrotation Yrotation
                JOINT LeftElbow
                {
                    OFFSET 22.379302978515625 0.0 0.0
                    CHANNELS 3 Zrotation Xrotation Yrotation
                    JOINT LeftWrist
                    {
                        OFFSET 19.033552169799805 0.0 0.0
                        CHANNELS 3 Zrotation Xrotation Yrotation
                        JOINT LeftHand
                        {
                            OFFSET 4.735348701477051 0.0 0.0
                            CHANNELS 3 Zrotation Xrotation Yrotation
                            End Site
                            {
                                OFFSET 1.8941397666931152 0.0 0.0
                            }
                        }
                    }
                }
            }
            JOINT RightShoulder
            {
                OFFSET -16.312541961669922 0.0 0.0
                CHANNELS 3 Zrotation Xrotation Yrotation
                JOINT RightElbow
                {
                    OFFSET -22.379302978515625 0.0 0.0
                    CHANNELS 3 Zrotation Xrotation Yrotation
                    JOINT RightWrist
                    {
                        OFFSET -19.033552169799805 0.0 0.0
                        CHANNELS 3 Zrotation Xrotation Yrotation
                        JOINT RightHand
                        {
                            OFFSET -4.735348701477051 0.0 0.0
                            CHANNELS 3 Zrotation Xrotation Yrotation
                            End Site
                            {
                                OFFSET -1.8941397666931152 0.0 0.0
                            }
                        }
                    }
                }
            }
            End Site
            {
                OFFSET 0.0 8.983271598815918 0.0
            }
        }
    }
    JOINT LeftHip
    {
        OFFSET 7.986269950866699 0.0 0.0
        CHANNELS 3 Zrotation Xrotation Yrotation
        JOINT LeftKnee
        {
            OFFSET 0.0 -31.449081420898438 0.0
            CHANNELS 3 Zrotation Xrotation Yrotation
            JOINT LeftAnkle
            {
                OFFSET 0.0 -30.70502471923828 0.0
                CHANNELS 3 Zrotation Xrotation Yrotation
                JOINT LeftFoot
                {
                    OFFSET 0.0 -10.848640441894531 0.0
                    CHANNELS 3 Zrotation Xrotation Yrotation
                    End Site
                    {
                        OFFSET 0.0 0.0 4.339455604553223
                    }
                }
            }
        }
    }
    JOINT RightHip
    {
        OFFSET -7.986269950866699 0.0 0.0
        CHANNELS 3 Zrotation Xrotation Yrotation
        JOINT RightKnee
        {
            OFFSET 0.0 -31.449081420898438 0.0
            CHANNELS 3 Zrotation Xrotation Yrotation
            JOINT RightAnkle
            {
                OFFSET 0.0 -30.70502471923828 0.0
                CHANNELS 3 Zrotation Xrotation Yrotation
                JOINT RightFoot
                {
                    OFFSET 0.0 -10.848640441894531 0.0
                    CHANNELS 3 Zrotation Xrotation Yrotation
                    End Site
                    {
                        OFFSET 0.0 0.0 4.339455604553223
                    }
                }
            }
        }
    }
}
MOTION
Frames: 6
Frame Time: 0.03333333333333333
-1.9694000482559204 -8.99209976196289 -268.5605163574219 3.786912090644117 -3.115657986220705 160.23669983465217 0.8415638646295744 -1.6372716083161654 0.13384082665951177 3.956980680234384e-07 5.268198084834731e-08 8.239802669112287 -90.74863730570102 21.07245596537627 2.7785555587368385 7.090179479342729e-07 4.6261018343093705e-06 13.504779134293063 179.99999750935686 -74.73996734329069 -152.04842081717499 2.2069531490250793e-31 7.951386703658793e-15 -3.1805546814635176e-15 46.72546687207212 73.03959323252562 -109.20587794186726 -4.122220131700454e-06 -3.24038722697617e-06 -86.45433460411921 -7.031033985151948e-06 2.223708259049008 -85.63831809754447 0.0 6.3611093629270335e-15 0.0 12.76830728497075 -9.69176773977226 31.21115544689373 3.0168805403628896 7.1723848811199185 -1.7497692773286897 16.89828675790939 52.62508893118864 -25.11714369472109 3.975693351829396e-16 -1.3793457181406746e-33 -3.975693351829396e-16 8.363644435601955 -20.289146097333372 -16.46274228514117 -0.9575101606143622 12.338906347235646 -3.5702723446841462 -47.21588589704599 22.5025860424513 13.112223891265723 1.5902773407317582e-15 -2.2069531490250793e-32 -1.5902773407317582e-15
-1.9277000427246094 -8.884400367736816 -268.45751953125 3.8183201165505913 -3.19541442888197 159.80323140864988 0.8485405895723294 -1.6480513475448513 0.1251340991555769 -1.9815776410028117e-07 -4.556477629110434e-08 8.687514389940068 -90.90686099861743 22.544226188928825 2.9380514333512746 3.7191866592044906e-06 -2.9691073708911387e-06 13.300102055661466 179.99998721454327 -79.58822747244038 -153.93826629425527 -1.5902773407317582e-15 4.770832022195275e-15 -3.1805546814635168e-15 47.10200572300466 72.78688651155214 -109.03910841702567 -1.5849804960127146e-06 -4.525924553698261e-07 -86.59392275784451 -1.3555160980019282e-06 8.984464857347414 -79.13711353875522 0.0 0.0 1.5902773407317584e-15 13.066484980174843 -9.177401955288724 31.101759213463303 2.128932054352067 6.280653501005859 -1.463402748351456 16.749911683385896 52.48537621492423 -24.442847683295984 -9.93923337957349e-16 -3.4483642953516864e-33 3.975693351829396e-16 8.746039805357526 -20.40780601278489 -16.28982694057741 -1.2121428657807403 12.344750854137152 -3.5151689082716127 -47.30788960168749 22.456968430032465 13.253313478194604 3.1805546814635168e-15 -3.1805546814635168e-15 -1.5902773407317584e-15
-1.9548001289367676 -8.913999557495117 -268.3876037597656 3.862353516200174 -2.900438226115228 160.43876776770816 0.8037681105368262 -1.7721570357450802 0.1504470938148039 -5.740944710171661e-07 -1.149864277841325e-07 8.123745795305968 -91.12683581328598 21.660512372730107 3.5922133090870534 -6.303748874838343e-06 1.5015792699038087e-06 13.219185633010616 -179.999989239312 -78.29734965283751 -147.8954072962954 -4.770832022195274e-15 1.3241718894150476e-31 -3.1805546814635164e-15 48.73777716660591 72.82817216953771 -109.96648583357758 -2.991334232267084e-06 1.1128575002415223e-06 -87.35274768187715 -1.4870842011498879e-06 11.204520750816993 -73.73417350058558 7.951386703658794e-16 -6.361109362927035e-15 4.4139062980501586e-32 12.927132054074498 -9.397114362302464 31.376489760809143 2.433176490879685 6.52917551641232 -1.601302231343068 17.351992241038715 51.76646834027774 -25.329731270837744 9.93923337957349e-16 0.0 0.0 8.395217184852916 -20.15250817344306 -16.618425607292288 -0.9623879230166587 12.217188874044261 -3.5502985231616107 -47.553367072145555 22.989563167340677 13.50710053573168 -1.5902773407317584e-15 0.0 0.0
-1.9624000787734985 -8.933300018310547 -268.3768005371094 3.8403795198695474 -2.8923130756978614 160.90801962929254 0.7772264701760677 -1.7655620752024515 0.1472311606965202 1.4942065257121745e-08 6.475955960960148e-08 7.932355311818783 -90.23416426071171 17.40238636675291 4.013566723422766 -2.4521175020256163e-06 1.5934741646902306e-07 12.04305770501207 -179.9999646551686 -85.26372900545275 -157.71355330594866 -7.951386703658792e-15 4.770832022195275e-15 -3.1805546814635164e-15 50.193966964729704 72.36163473729258 -109.58182395711138 -3.851511622650008e-06 2.8634690186623593e-06 -90.04570431056709 -4.042969332687238e-06 13.978870895332445 -50.784315839936845 -7.951386703658794e-16 -5.963540027744095e-15 3.975693351829397e-16 13.20428849923538 -9.719634394833804 31.5510487345218 2.0627224433115603 7.4522862798807195 -1.7857330227180552 18.52743766447045 51.54180552457867 -26.009174420090634 7.951386703658794e-16 6.361109362927035e-15 -3.975693351829398e-16 8.125853756101689 -20.117806885863093 -16.934387699150527 -0.8344327366756057 12.205935704355754 -3.504392771639185 -47.94422124517472 23.286227201524866 13.961572408112515 1.5902773407317584e-15 -6.3611093629270335e-15 1.5902773407317584e-15
-2.0894999504089355 -8.958000183105469 -268.360595703125 3.6125562668773274 -2.8970701637292575 161.52655382252573 0.618667598459344 -1.834205689574857 0.1392481772824411 5.285893005317315e-07 -8.358206420850446e-09 7.422570829274507 -89.78780158982686 12.219509964879103 4.351472338890331 -1.4074486974798342e-06 5.519504918828408e-07 11.800776498958157 -179.99999330110018 -78.41776456694285 -158.50196538213044 -3.1805546814635168e-15 6.3611093629270335e-15 1.7655625192200634e-31 49.819203687827866 72.83900771126365 -106.57048535876146 -3.021272369764041e-06 1.8517208953949514e-06 -93.4290353476923 1.5168374909968884e-06 17.59161245151572 -34.788990969744496 -3.1805546814635164e-15 -7.951386703658792e-16 4.770832022195274e-15 13.102046686197887 -10.169878175635422 31.42987082886398 1.385441724469157 8.223640092601402 -1.7747065342393218 20.919538495568972 51.24733110294112 -26.872354810790878 3.975693351829396e-16 0.0 0.0 7.450011722660816 -20.269739048044503 -17.373743674278757 -0.6379035036704467 12.283546046542595 -3.416377524990347 -47.778701265803704 23.635846662768234 14.313245089879317 -1.5902773407317588e-15 6.361109362927035e-15 8.827812596100317e-32
-2.2086000442504883 -8.961000442504883 -268.37890625 3.43736504627274 -2.845604810953164 161.83351575067408 0.4891217686220125 -1.8201841071660074 0.1265678642562814 -4.33099467026573e-07 -7.394934844738045e-08 7.397774145431391 -89.09673245822228 9.17412168240147 4.748014391417894 2.7447494432617286e-06 8.626907724251591e-07 11.09313563880137 179.9999888002624 -84.33170402323154 -157.4367419945906 0.0 -3.1805546814635176e-15 0.0 53.40837174282618 73.0012166957446 -105.88269759666244 -1.7866670667682504e-06 -5.762911757287076e-07 -99.89327927738168 1.7714329834581438e-06 8.279961324123274 -17.05067377839968 3.1805546814635168e-15 0.0 0.0 12.774614563538918 -10.344770907491831 31.21596848599771 1.4821826090049328 8.377949813060871 -1.7266607650848225 20.809215093520923 51.098886532232605 -26.259314155253485 -7.951386703658791e-16 -6.361109362927033e-15 -4.4139062980501586e-32 7.172059936487348 -20.291762106493216 -17.56869245274252 -0.861998957425059 12.278695918104848 -3.2801994375726933 -47.06100483236612 23.483099388073654 14.155465126545085 8.827812596100317e-32 6.3611093629270335e-15 -1.5902773407317584e-15
